<svg xmlns="http://www.w3.org/2000/svg" viewBox="0 0 48 48">
  <circle cx="24" cy="24" r="20" fill="#1DB954"/>
  <path fill="#FFFFFF" d="M33.7 21.2c-5.4-3.2-14.3-3.5-19.4-1.9-.8.3-1.7-.2-1.9-1-.3-.8.2-1.7 1-1.9 5.9-1.8 15.6-1.5 21.8 2.2.7.4 1 1.4.5 2.1-.4.7-1.3.9-2 .5zm-.3 4.9c-.4.6-1.1.8-1.7.4-4.5-2.8-11.3-3.6-16.6-2-.6.2-1.3-.1-1.5-.7-.2-.6.1-1.3.7-1.5 6.1-1.8 13.6-.9 18.7 2.3.6.3.8 1.1.4 1.7v-.2zm-1.9 4.7c-.3.5-.9.6-1.4.4-3.9-2.4-8.9-2.9-14.7-1.6-.5.1-1.1-.2-1.2-.7-.1-.5.2-1.1.7-1.2 6.4-1.4 11.9-.8 16.2 1.8.5.3.7.9.4 1.4v-.1z"/>
</svg>
